<?xml version="1.0" encoding="UTF-8"?>
<svg xmlns="http://www.w3.org/2000/svg" xmlns:xlink="http://www.w3.org/1999/xlink" width="793.701pt" height="211.157pt" viewBox="0 0 793.701 211.157" version="1.1">
<g id="surface1">
<path style=" stroke:none;fill-rule:evenodd;fill:rgb(97.999573%,76.499939%,0%);fill-opacity:1;" d="M 554.722656 32.496094 L 744.957031 32.496094 C 768.5625 32.496094 787.703125 51.632812 787.703125 75.242188 L 787.703125 95.550781 C 787.703125 119.160156 768.5625 138.296875 744.957031 138.296875 L 554.722656 138.296875 C 531.113281 138.296875 511.972656 119.160156 511.972656 95.550781 L 511.972656 75.242188 C 511.972656 51.632812 531.113281 32.496094 554.722656 32.496094 "/>
<path style=" stroke:none;fill-rule:nonzero;fill:rgb(100%,100%,100%);fill-opacity:1;" d="M 714.605469 105.351562 L 720.144531 96.941406 C 725.992188 101.351562 732.351562 103.609375 737.894531 103.609375 C 743.230469 103.609375 746.308594 101.351562 746.308594 97.554688 C 746.308594 93.554688 741.078125 92.117188 735.125 90.371094 C 734.816406 90.269531 734.507812 90.167969 734.203125 90.066406 C 726.199219 87.707031 717.273438 84.421875 717.273438 73.851562 C 717.273438 63.59375 725.789062 57.332031 736.5625 57.332031 C 743.335938 57.332031 750.71875 59.695312 756.464844 63.488281 L 751.542969 72.3125 C 746.308594 69.132812 740.769531 67.183594 736.253906 67.183594 C 731.429688 67.183594 728.660156 69.441406 728.660156 72.828125 C 728.660156 76.519531 733.894531 78.160156 739.84375 80.113281 C 740.152344 80.214844 740.566406 80.316406 740.871094 80.417969 C 748.773438 82.882812 757.699219 86.472656 757.699219 96.425781 C 757.699219 107.816406 748.875 113.460938 737.589844 113.460938 C 729.890625 113.460938 721.375 110.6875 714.605469 105.351562 M 682.699219 102.890625 C 673.054688 102.890625 666.179688 94.886719 666.179688 85.449219 C 666.179688 75.804688 672.542969 68.003906 682.496094 68.003906 C 692.242188 68.003906 699.113281 75.902344 699.113281 85.449219 C 699.113281 94.988281 692.753906 102.890625 682.699219 102.890625 M 682.496094 113.664062 C 699.21875 113.664062 711.53125 100.839844 711.53125 85.449219 C 711.53125 69.75 699.324219 57.128906 682.699219 57.128906 C 666.078125 57.128906 653.765625 69.953125 653.765625 85.449219 C 653.765625 101.042969 665.976562 113.664062 682.496094 113.664062 M 600.3125 85.449219 C 600.3125 70.058594 612.214844 57.128906 628.425781 57.128906 C 638.6875 57.128906 645.046875 60.925781 650.078125 66.464844 L 642.382812 74.773438 C 638.582031 70.773438 634.582031 68.003906 628.324219 68.003906 C 619.292969 68.003906 612.726562 75.804688 612.726562 85.449219 C 612.726562 95.09375 619.394531 102.890625 628.941406 102.890625 C 634.789062 102.890625 639.09375 100.121094 642.996094 96.117188 L 650.488281 103.503906 C 645.152344 109.457031 638.890625 113.664062 628.324219 113.664062 C 612.214844 113.664062 600.3125 101.042969 600.3125 85.449219 M 554.289062 81.546875 C 555.417969 73.136719 560.753906 67.285156 568.34375 67.285156 C 576.554688 67.285156 581.273438 73.546875 582.09375 81.546875 Z M 569.78125 113.664062 C 579.734375 113.664062 586.8125 109.664062 591.945312 103.503906 L 584.664062 97.042969 C 580.351562 101.246094 576.042969 103.503906 569.988281 103.503906 C 561.988281 103.503906 555.726562 98.582031 554.390625 89.757812 L 594.203125 89.757812 C 594.304688 89.140625 594.40625 87.089844 594.40625 86.269531 C 594.40625 70.671875 585.6875 57.128906 568.449219 57.128906 C 552.957031 57.128906 541.976562 69.851562 541.976562 85.34375 C 541.976562 102.273438 554.085938 113.664062 569.78125 113.664062 "/>
<path style=" stroke:none;fill-rule:nonzero;fill:rgb(45.098877%,58.799744%,80.39856%);fill-opacity:1;" d="M 126.242188 126 L 126.242188 46.582031 C 126.242188 40.261719 121.117188 35.140625 114.796875 35.140625 C 108.476562 35.140625 103.355469 40.261719 103.355469 46.582031 L 103.355469 126 C 103.355469 132.320312 108.476562 137.441406 114.796875 137.441406 C 121.117188 137.441406 126.242188 132.320312 126.242188 126 M 493.0625 118.339844 L 461.59375 83.390625 L 489.464844 54.53125 C 493.855469 49.984375 493.730469 42.742188 489.183594 38.351562 C 484.636719 33.960938 477.390625 34.085938 473.003906 38.632812 L 438.394531 74.46875 L 438.394531 46.582031 C 438.394531 40.261719 433.273438 35.140625 426.953125 35.140625 C 420.632812 35.140625 415.507812 40.261719 415.507812 46.582031 L 415.507812 126 C 415.507812 132.320312 420.632812 137.441406 426.953125 137.441406 C 433.273438 137.441406 438.394531 132.320312 438.394531 126 L 438.394531 91.832031 L 476.054688 133.65625 C 480.285156 138.351562 487.519531 138.730469 492.21875 134.503906 C 496.914062 130.273438 497.292969 123.039062 493.0625 118.339844 M 388.960938 111.925781 C 387.019531 111.925781 384.746094 112.503906 382.125 113.648438 C 377.6875 115.484375 373.015625 116.402344 368.121094 116.402344 C 359.242188 116.402344 352.722656 113.363281 348.566406 107.28125 C 344.40625 101.203125 342.332031 94.207031 342.332031 86.289062 C 342.332031 78.375 344.40625 71.378906 348.566406 65.300781 C 352.722656 59.21875 359.242188 56.179688 368.121094 56.179688 C 373.015625 56.179688 377.6875 57.097656 382.125 58.933594 C 384.746094 60.078125 387.019531 60.652344 388.960938 60.652344 C 392.03125 60.652344 394.59375 59.675781 396.644531 57.730469 C 398.695312 55.777344 399.71875 53.253906 399.71875 50.160156 C 399.71875 44.765625 396.925781 40.75 391.347656 38.113281 C 383.945312 34.671875 376.03125 32.953125 367.609375 32.953125 C 352.347656 32.953125 340.167969 38.113281 331.058594 48.4375 C 322.246094 58.226562 317.816406 70.851562 317.75 86.289062 C 317.816406 101.730469 322.246094 114.351562 331.058594 124.144531 C 340.167969 134.46875 352.347656 139.628906 367.609375 139.628906 C 376.03125 139.628906 383.945312 137.910156 391.347656 134.46875 C 396.925781 131.828125 399.71875 127.816406 399.71875 122.421875 C 399.71875 119.324219 398.695312 116.804688 396.644531 114.851562 C 394.59375 112.902344 392.03125 111.925781 388.960938 111.925781 M 77.207031 111.925781 C 75.269531 111.925781 72.992188 112.503906 70.375 113.648438 C 65.933594 115.484375 61.265625 116.402344 56.367188 116.402344 C 47.488281 116.402344 40.96875 113.363281 36.816406 107.28125 C 32.65625 101.203125 30.582031 94.207031 30.582031 86.289062 C 30.582031 78.375 32.65625 71.378906 36.816406 65.300781 C 40.96875 59.21875 47.488281 56.179688 56.367188 56.179688 C 61.265625 56.179688 65.933594 57.097656 70.375 58.933594 C 72.992188 60.078125 75.269531 60.652344 77.207031 60.652344 C 80.28125 60.652344 82.839844 59.675781 84.890625 57.730469 C 86.941406 55.777344 87.964844 53.253906 87.964844 50.160156 C 87.964844 44.765625 85.175781 40.75 79.597656 38.113281 C 72.195312 34.671875 64.28125 32.953125 55.859375 32.953125 C 40.597656 32.953125 28.417969 38.113281 19.308594 48.4375 C 10.492188 58.226562 6.066406 70.851562 6 86.289062 C 6.066406 101.730469 10.492188 114.351562 19.308594 124.144531 C 28.417969 134.46875 40.597656 139.628906 55.859375 139.628906 C 64.28125 139.628906 72.195312 137.910156 79.597656 134.46875 C 85.175781 131.828125 87.964844 127.816406 87.964844 122.421875 C 87.964844 119.324219 86.941406 116.804688 84.890625 114.851562 C 82.839844 112.902344 80.28125 111.925781 77.207031 111.925781 M 235.445312 77.984375 L 282.652344 77.984375 C 282.054688 61.550781 268.832031 54.132812 259.046875 54.132812 C 249.265625 54.132812 236.039062 61.550781 235.445312 77.984375 M 298.742188 109.652344 C 304.847656 113.175781 306.007812 121.621094 300.929688 126.511719 C 290.691406 136.378906 274.304688 139.628906 258.265625 139.628906 C 231.195312 139.628906 209.253906 115.746094 209.253906 86.289062 C 209.253906 56.832031 231.195312 32.953125 258.265625 32.953125 C 285.332031 32.953125 307.273438 56.832031 307.273438 86.289062 C 307.273438 91 303.457031 94.816406 298.75 94.816406 L 235.441406 94.816406 C 235.996094 113.886719 250.175781 118.449219 263.832031 118.449219 C 272.054688 118.449219 280.449219 116.773438 285.949219 111.273438 C 289.335938 107.890625 294.597656 107.261719 298.742188 109.652344 M 209.230469 46.433594 C 208.863281 52.0625 203.941406 56.316406 198.300781 56.316406 L 184.316406 56.316406 L 184.316406 126 C 184.316406 132.320312 179.195312 137.441406 172.875 137.441406 C 166.554688 137.441406 161.429688 132.320312 161.429688 126 L 161.429688 56.316406 L 147.085938 56.316406 C 141.003906 56.316406 136.121094 51.191406 136.519531 45.023438 C 136.882812 39.394531 141.808594 35.140625 147.449219 35.140625 L 198.664062 35.140625 C 204.746094 35.140625 209.628906 40.265625 209.230469 46.433594 "/>
<path style=" stroke:none;fill-rule:nonzero;fill:rgb(97.999573%,76.499939%,0%);fill-opacity:1;" d="M 126.242188 15.605469 C 126.242188 21.925781 121.117188 27.050781 114.796875 27.050781 C 108.476562 27.050781 103.355469 21.925781 103.355469 15.605469 C 103.355469 9.285156 108.476562 4.164062 114.796875 4.164062 C 121.117188 4.164062 126.242188 9.285156 126.242188 15.605469 "/>
<path style=" stroke:none;fill-rule:nonzero;fill:rgb(19.599915%,19.599915%,21.598816%);fill-opacity:1;" d="M 486.398438 165.671875 C 485.734375 166.253906 485.402344 167.097656 485.402344 168.210938 C 485.402344 169.289062 485.722656 170.125 486.363281 170.710938 C 487.003906 171.296875 487.933594 171.589844 489.15625 171.589844 L 493 171.589844 L 493 164.804688 L 489.273438 164.804688 C 488.019531 164.804688 487.0625 165.09375 486.398438 165.671875 M 496.003906 162.222656 L 496.003906 178.660156 L 493 178.660156 L 493 174.082031 L 488.617188 174.082031 L 485.566406 178.660156 L 482.351562 178.660156 L 485.871094 173.589844 C 484.730469 173.164062 483.851562 172.496094 483.230469 171.578125 C 482.613281 170.664062 482.304688 169.558594 482.304688 168.257812 C 482.304688 167.003906 482.585938 165.925781 483.152344 165.015625 C 483.714844 164.109375 484.511719 163.414062 485.542969 162.9375 C 486.574219 162.460938 487.785156 162.222656 489.179688 162.222656 Z M 474.519531 172.460938 L 471.425781 165.273438 L 468.351562 172.460938 Z M 475.527344 174.855469 L 467.320312 174.855469 L 465.703125 178.660156 L 462.558594 178.660156 L 469.949219 162.222656 L 472.949219 162.222656 L 480.359375 178.660156 L 477.171875 178.660156 Z M 458.1875 173.871094 C 458.1875 172.273438 457.109375 171.472656 454.953125 171.472656 L 450.261719 171.472656 L 450.261719 176.3125 L 454.953125 176.3125 C 457.109375 176.3125 458.1875 175.496094 458.1875 173.871094 M 450.261719 169.242188 L 454.339844 169.242188 C 455.328125 169.242188 456.078125 169.046875 456.59375 168.65625 C 457.109375 168.265625 457.367188 167.683594 457.367188 166.917969 C 457.367188 166.152344 457.109375 165.566406 456.59375 165.167969 C 456.078125 164.769531 455.328125 164.570312 454.339844 164.570312 L 450.261719 164.570312 Z M 460.4375 171.554688 C 460.988281 172.234375 461.257812 173.085938 461.257812 174.105469 C 461.257812 175.546875 460.726562 176.664062 459.664062 177.464844 C 458.601562 178.261719 457.0625 178.660156 455.046875 178.660156 L 447.257812 178.660156 L 447.257812 162.222656 L 454.597656 162.222656 C 456.445312 162.222656 457.882812 162.589844 458.914062 163.324219 C 459.949219 164.058594 460.460938 165.101562 460.460938 166.449219 C 460.460938 167.308594 460.253906 168.054688 459.839844 168.679688 C 459.425781 169.304688 458.828125 169.785156 458.046875 170.109375 C 459.09375 170.394531 459.890625 170.875 460.4375 171.554688 M 438.128906 175.476562 C 439.003906 174.984375 439.695312 174.296875 440.195312 173.410156 C 440.695312 172.527344 440.945312 171.535156 440.945312 170.441406 C 440.945312 169.34375 440.695312 168.355469 440.195312 167.46875 C 439.695312 166.585938 439.003906 165.898438 438.128906 165.402344 C 437.253906 164.910156 436.269531 164.664062 435.175781 164.664062 C 434.082031 164.664062 433.09375 164.910156 432.21875 165.402344 C 431.34375 165.898438 430.65625 166.585938 430.15625 167.46875 C 429.65625 168.355469 429.40625 169.34375 429.40625 170.441406 C 429.40625 171.535156 429.65625 172.527344 430.15625 173.410156 C 430.65625 174.296875 431.34375 174.984375 432.21875 175.476562 C 433.09375 175.972656 434.082031 176.21875 435.175781 176.21875 C 436.269531 176.21875 437.253906 175.972656 438.128906 175.476562 M 430.648438 177.804688 C 429.304688 177.074219 428.25 176.066406 427.480469 174.773438 C 426.714844 173.484375 426.332031 172.039062 426.332031 170.441406 C 426.332031 168.84375 426.714844 167.398438 427.480469 166.109375 C 428.25 164.816406 429.304688 163.804688 430.648438 163.078125 C 431.992188 162.351562 433.503906 161.984375 435.175781 161.984375 C 436.847656 161.984375 438.355469 162.351562 439.703125 163.078125 C 441.046875 163.804688 442.101562 164.8125 442.867188 166.097656 C 443.632812 167.378906 444.015625 168.828125 444.015625 170.441406 C 444.015625 172.054688 443.632812 173.503906 442.867188 174.785156 C 442.101562 176.070312 441.046875 177.074219 439.703125 177.804688 C 438.355469 178.53125 436.847656 178.894531 435.175781 178.894531 C 433.503906 178.894531 431.992188 178.53125 430.648438 177.804688 M 420.039062 170.488281 C 420.726562 169.925781 421.074219 169.117188 421.074219 168.070312 C 421.074219 167.019531 420.726562 166.214844 420.039062 165.648438 C 419.351562 165.085938 418.34375 164.804688 417.015625 164.804688 L 413.449219 164.804688 L 413.449219 171.332031 L 417.015625 171.332031 C 418.34375 171.332031 419.351562 171.050781 420.039062 170.488281 M 420.871094 162.925781 C 421.925781 163.394531 422.738281 164.066406 423.300781 164.945312 C 423.863281 165.824219 424.144531 166.863281 424.144531 168.070312 C 424.144531 169.257812 423.863281 170.296875 423.300781 171.179688 C 422.738281 172.066406 421.925781 172.742188 420.871094 173.210938 C 419.816406 173.683594 418.578125 173.917969 417.15625 173.917969 L 413.449219 173.917969 L 413.449219 178.660156 L 410.402344 178.660156 L 410.402344 162.222656 L 417.15625 162.222656 C 418.578125 162.222656 419.816406 162.457031 420.871094 162.925781 M 403.007812 173.765625 C 403.976562 172.957031 404.460938 171.835938 404.460938 170.394531 C 404.460938 168.953125 403.972656 167.832031 403 167.035156 C 402.019531 166.234375 400.601562 165.777344 398.742188 165.648438 L 398.742188 175.183594 C 400.617188 175.042969 402.039062 174.570312 403.007812 173.765625 M 391.691406 173.753906 C 392.671875 174.550781 394.082031 175.027344 395.925781 175.183594 L 395.925781 165.648438 C 392.125 165.933594 390.226562 167.519531 390.226562 170.417969 C 390.226562 171.84375 390.714844 172.953125 391.691406 173.753906 M 405.144531 175.535156 C 403.640625 176.789062 401.507812 177.472656 398.742188 177.582031 L 398.742188 179.316406 L 395.925781 179.316406 L 395.925781 177.582031 C 393.160156 177.441406 391.019531 176.75 389.511719 175.511719 C 388.003906 174.277344 387.25 172.578125 387.25 170.417969 C 387.25 168.257812 388.003906 166.554688 389.511719 165.308594 C 391.019531 164.0625 393.160156 163.371094 395.925781 163.230469 L 395.925781 161.5625 L 398.742188 161.5625 L 398.742188 163.230469 C 401.507812 163.371094 403.640625 164.0625 405.144531 165.308594 C 406.644531 166.554688 407.394531 168.257812 407.394531 170.417969 C 407.394531 172.578125 406.644531 174.285156 405.144531 175.535156 M 369.53125 162.222656 L 372.53125 162.222656 L 372.53125 173.894531 L 381.347656 162.222656 L 384.1875 162.222656 L 384.1875 178.660156 L 381.183594 178.660156 L 381.183594 167.011719 L 372.367188 178.660156 L 369.53125 178.660156 Z M 366.789062 176.078125 L 366.789062 182.277344 L 363.972656 182.277344 L 363.972656 178.660156 L 350.042969 178.660156 L 350.042969 162.222656 L 353.042969 162.222656 L 353.042969 176.078125 L 361.324219 176.078125 L 361.324219 162.222656 L 364.347656 162.222656 L 364.347656 176.078125 Z M 366.789062 176.078125 "/>
<path style=" stroke:none;fill-rule:nonzero;fill:rgb(19.599915%,19.599915%,21.598816%);fill-opacity:1;" d="M 781.855469 172.460938 L 778.757812 165.273438 L 775.683594 172.460938 Z M 782.867188 174.855469 L 774.652344 174.855469 L 773.03125 178.660156 L 769.886719 178.660156 L 777.28125 162.222656 L 780.285156 162.222656 L 787.703125 178.660156 L 784.507812 178.660156 Z M 764.429688 178.660156 L 764.40625 167.761719 L 759.007812 176.78125 L 757.644531 176.78125 L 752.246094 167.902344 L 752.246094 178.660156 L 749.359375 178.660156 L 749.359375 162.222656 L 751.871094 162.222656 L 758.375 173.09375 L 764.804688 162.222656 L 767.292969 162.222656 L 767.339844 178.660156 Z M 742.40625 170.488281 C 743.09375 169.925781 743.4375 169.117188 743.4375 168.070312 C 743.4375 167.019531 743.09375 166.214844 742.40625 165.648438 C 741.714844 165.085938 740.707031 164.804688 739.378906 164.804688 L 735.808594 164.804688 L 735.808594 171.332031 L 739.378906 171.332031 C 740.707031 171.332031 741.714844 171.050781 742.40625 170.488281 M 743.238281 162.925781 C 744.292969 163.394531 745.105469 164.066406 745.667969 164.945312 C 746.230469 165.824219 746.511719 166.863281 746.511719 168.070312 C 746.511719 169.257812 746.230469 170.296875 745.667969 171.179688 C 745.105469 172.0625 744.292969 172.742188 743.238281 173.210938 C 742.183594 173.683594 740.941406 173.917969 739.519531 173.917969 L 735.808594 173.917969 L 735.808594 178.660156 L 732.757812 178.660156 L 732.757812 162.222656 L 739.519531 162.222656 C 740.941406 162.222656 742.183594 162.457031 743.238281 162.925781 M 723.632812 175.476562 C 724.511719 174.984375 725.199219 174.296875 725.699219 173.410156 C 726.199219 172.527344 726.453125 171.535156 726.453125 170.441406 C 726.453125 169.34375 726.199219 168.355469 725.699219 167.46875 C 725.199219 166.585938 724.511719 165.898438 723.632812 165.402344 C 722.757812 164.910156 721.769531 164.664062 720.675781 164.664062 C 719.582031 164.664062 718.59375 164.910156 717.71875 165.402344 C 716.84375 165.898438 716.15625 166.585938 715.652344 167.46875 C 715.152344 168.355469 714.902344 169.34375 714.902344 170.441406 C 714.902344 171.535156 715.152344 172.527344 715.652344 173.410156 C 716.15625 174.296875 716.84375 174.984375 717.71875 175.476562 C 718.59375 175.972656 719.582031 176.21875 720.675781 176.21875 C 721.769531 176.21875 722.757812 175.972656 723.632812 175.476562 M 716.144531 177.804688 C 714.800781 177.074219 713.746094 176.0625 712.976562 174.773438 C 712.210938 173.480469 711.828125 172.039062 711.828125 170.441406 C 711.828125 168.84375 712.210938 167.398438 712.976562 166.105469 C 713.746094 164.816406 714.800781 163.804688 716.144531 163.078125 C 717.492188 162.351562 719.003906 161.984375 720.675781 161.984375 C 722.351562 161.984375 723.863281 162.351562 725.207031 163.078125 C 726.550781 163.804688 727.609375 164.8125 728.375 166.097656 C 729.140625 167.378906 729.527344 168.828125 729.527344 170.441406 C 729.527344 172.054688 729.140625 173.503906 728.375 174.785156 C 727.609375 176.070312 726.550781 177.074219 725.207031 177.804688 C 723.863281 178.53125 722.351562 178.894531 720.675781 178.894531 C 719.003906 178.894531 717.492188 178.53125 716.144531 177.804688 M 705.15625 173.765625 C 706.125 172.957031 706.609375 171.835938 706.609375 170.394531 C 706.609375 168.953125 706.121094 167.832031 705.144531 167.035156 C 704.164062 166.238281 702.746094 165.777344 700.882812 165.648438 L 700.882812 175.183594 C 702.757812 175.042969 704.183594 174.570312 705.15625 173.765625 M 693.828125 173.753906 C 694.804688 174.550781 696.21875 175.027344 698.066406 175.183594 L 698.066406 165.648438 C 694.261719 165.933594 692.363281 167.519531 692.363281 170.417969 C 692.363281 171.84375 692.851562 172.953125 693.828125 173.753906 M 707.292969 175.535156 C 705.789062 176.789062 703.652344 177.472656 700.882812 177.582031 L 700.882812 179.316406 L 698.066406 179.316406 L 698.066406 177.582031 C 695.296875 177.4375 693.15625 176.75 691.644531 175.511719 C 690.136719 174.277344 689.382812 172.578125 689.382812 170.417969 C 689.382812 168.257812 690.136719 166.554688 691.644531 165.308594 C 693.15625 164.0625 695.296875 163.371094 698.066406 163.230469 L 698.066406 161.5625 L 700.882812 161.5625 L 700.882812 163.230469 C 703.652344 163.371094 705.789062 164.0625 707.292969 165.308594 C 708.792969 166.554688 709.542969 168.257812 709.542969 170.417969 C 709.542969 172.578125 708.792969 174.285156 707.292969 175.535156 M 688.6875 164.804688 L 683.242188 164.804688 L 683.242188 178.660156 L 680.214844 178.660156 L 680.214844 164.804688 L 674.792969 164.804688 L 674.792969 162.222656 L 688.6875 162.222656 Z M 670.140625 172.460938 L 667.042969 165.273438 L 663.96875 172.460938 Z M 671.152344 174.855469 L 662.933594 174.855469 L 661.316406 178.660156 L 658.171875 178.660156 L 665.5625 162.222656 L 668.570312 162.222656 L 675.988281 178.660156 L 672.792969 178.660156 Z M 655.613281 162.222656 L 655.613281 178.660156 L 652.605469 178.660156 L 652.605469 164.804688 L 646.128906 164.804688 L 645.988281 168.914062 C 645.910156 171.214844 645.722656 173.082031 645.425781 174.515625 C 645.128906 175.949219 644.652344 177.035156 643.996094 177.78125 C 643.335938 178.523438 642.429688 178.894531 641.269531 178.894531 C 640.863281 178.894531 640.308594 178.816406 639.605469 178.660156 L 639.816406 176.007812 C 640.019531 176.070312 640.253906 176.101562 640.519531 176.101562 C 641.472656 176.101562 642.152344 175.535156 642.550781 174.398438 C 642.949219 173.261719 643.195312 171.472656 643.289062 169.03125 L 643.523438 162.222656 Z M 636.988281 162.222656 L 636.988281 178.660156 L 633.980469 178.660156 L 633.980469 164.804688 L 625.460938 164.804688 L 625.460938 178.660156 L 622.457031 178.660156 L 622.457031 162.222656 Z M 612.25 169.125 L 618.703125 169.125 L 618.703125 171.566406 L 612.25 171.566406 Z M 600.386719 177.804688 C 599.046875 177.074219 598 176.070312 597.242188 174.785156 C 596.480469 173.503906 596.101562 172.054688 596.101562 170.441406 C 596.101562 168.828125 596.488281 167.378906 597.253906 166.097656 C 598.019531 164.8125 599.074219 163.804688 600.410156 163.078125 C 601.75 162.351562 603.246094 161.984375 604.90625 161.984375 C 606.25 161.984375 607.480469 162.222656 608.589844 162.691406 C 609.703125 163.160156 610.640625 163.839844 611.40625 164.734375 L 609.433594 166.589844 C 608.246094 165.304688 606.785156 164.664062 605.046875 164.664062 C 603.917969 164.664062 602.910156 164.910156 602.019531 165.402344 C 601.128906 165.898438 600.429688 166.582031 599.929688 167.457031 C 599.429688 168.335938 599.179688 169.328125 599.179688 170.441406 C 599.179688 171.550781 599.429688 172.546875 599.929688 173.421875 C 600.429688 174.300781 601.128906 174.984375 602.019531 175.476562 C 602.910156 175.972656 603.917969 176.21875 605.046875 176.21875 C 606.785156 176.21875 608.246094 175.570312 609.433594 174.269531 L 611.40625 176.148438 C 610.640625 177.039062 609.699219 177.722656 608.578125 178.191406 C 607.460938 178.660156 606.226562 178.894531 604.882812 178.894531 C 603.222656 178.894531 601.722656 178.53125 600.386719 177.804688 M 594.398438 176.101562 L 594.398438 178.660156 L 582.074219 178.660156 L 582.074219 162.222656 L 594.070312 162.222656 L 594.070312 164.78125 L 585.125 164.78125 L 585.125 169.054688 L 593.058594 169.054688 L 593.058594 171.566406 L 585.125 171.566406 L 585.125 176.101562 Z M 577.765625 162.222656 L 577.765625 178.660156 L 574.714844 178.660156 L 574.714844 171.613281 L 566.21875 171.613281 L 566.21875 178.660156 L 563.167969 178.660156 L 563.167969 162.222656 L 566.21875 162.222656 L 566.21875 169.007812 L 574.714844 169.007812 L 574.714844 162.222656 Z M 559.019531 171.601562 C 559.574219 172.300781 559.851562 173.117188 559.851562 174.058594 C 559.851562 175.042969 559.53125 175.902344 558.890625 176.628906 C 558.25 177.355469 557.390625 177.917969 556.320312 178.308594 C 555.25 178.699219 554.078125 178.894531 552.8125 178.894531 C 551.714844 178.894531 550.617188 178.742188 549.511719 178.4375 C 548.410156 178.132812 547.390625 177.675781 546.449219 177.0625 L 547.4375 174.832031 C 548.15625 175.316406 548.953125 175.6875 549.832031 175.949219 C 550.707031 176.207031 551.578125 176.335938 552.433594 176.335938 C 553.671875 176.335938 554.703125 176.09375 555.523438 175.605469 C 556.34375 175.121094 556.753906 174.457031 556.753906 173.613281 C 556.753906 172.890625 556.457031 172.34375 555.863281 171.96875 C 555.265625 171.589844 554.449219 171.402344 553.398438 171.402344 L 549.574219 171.402344 L 549.574219 169.007812 L 553.164062 169.007812 C 554.070312 169.007812 554.785156 168.820312 555.296875 168.445312 C 555.816406 168.070312 556.074219 167.558594 556.074219 166.917969 C 556.074219 166.152344 555.726562 165.554688 555.03125 165.132812 C 554.335938 164.710938 553.445312 164.5 552.367188 164.5 C 551.628906 164.5 550.871094 164.605469 550.089844 164.816406 C 549.304688 165.027344 548.570312 165.335938 547.882812 165.742188 L 546.917969 163.277344 C 547.765625 162.824219 548.660156 162.480469 549.605469 162.257812 C 550.554688 162.03125 551.5 161.914062 552.433594 161.914062 C 553.65625 161.914062 554.777344 162.105469 555.804688 162.480469 C 556.828125 162.855469 557.648438 163.390625 558.257812 164.085938 C 558.867188 164.785156 559.171875 165.601562 559.171875 166.542969 C 559.171875 167.355469 558.953125 168.070312 558.515625 168.679688 C 558.078125 169.289062 557.472656 169.761719 556.707031 170.089844 C 557.695312 170.402344 558.464844 170.90625 559.019531 171.601562 M 529.003906 162.222656 L 532.007812 162.222656 L 532.007812 173.894531 L 540.832031 162.222656 L 543.671875 162.222656 L 543.671875 178.660156 L 540.667969 178.660156 L 540.667969 167.011719 L 531.839844 178.660156 L 529.003906 178.660156 Z M 519.207031 176.3125 C 520.378906 176.3125 521.269531 176.085938 521.878906 175.628906 C 522.492188 175.175781 522.796875 174.519531 522.796875 173.660156 C 522.796875 171.96875 521.597656 171.121094 519.207031 171.121094 L 514.980469 171.121094 L 514.980469 176.3125 Z M 511.972656 162.222656 L 524.765625 162.222656 L 524.765625 164.734375 L 514.980469 164.734375 L 514.980469 168.773438 L 519.839844 168.773438 C 521.808594 168.773438 523.308594 169.183594 524.332031 170.007812 C 525.359375 170.828125 525.871094 172.015625 525.871094 173.5625 C 525.871094 175.191406 525.308594 176.449219 524.179688 177.335938 C 523.054688 178.21875 521.449219 178.660156 519.371094 178.660156 L 511.972656 178.660156 Z M 511.972656 162.222656 "/>
</g>
</svg>
