<svg width="1462" height="288" viewBox="0 0 1462 288" fill="none" xmlns="http://www.w3.org/2000/svg">
<g clip-path="url(#clip0_96_39)">
<path d="M70.0675 99.0352V231.832C70.0675 233.598 68.6584 235.012 66.897 235.012C66.075 235.012 65.3313 234.698 64.7833 234.187L64.5876 233.991L16.0906 185.355C15.6209 184.884 15.1512 184.374 14.7206 183.863C11.4327 179.938 9.47559 174.835 9.47559 169.3C9.47559 163.019 12.0198 157.328 16.1297 153.245L70.1458 99.0744H70.0675V99.0352Z" fill="#A6A8AB"/>
<path d="M93.5505 9.38008V65.3173C93.5505 72.1083 90.8106 78.2319 86.3875 82.6676L16.0492 153.207C11.9393 157.329 9.39508 162.982 9.39508 169.262C9.39508 174.797 11.3522 179.861 14.6401 183.826C13.9356 183.198 13.2701 182.57 12.6047 181.902C8.2991 177.584 4.89374 172.363 2.74092 166.515C0.979528 161.804 0.000976562 156.701 0.000976562 151.362V105.71C0.000976562 98.9189 2.74092 92.7952 7.16398 88.3595L88.1489 7.2211C88.1489 7.2211 88.2272 7.10334 88.3055 7.06408C88.8535 6.55378 89.5972 6.23975 90.4192 6.23975C92.1414 6.23975 93.5505 7.6529 93.5505 9.38008Z" fill="#A30C33"/>
<path d="M119.82 195.562V62.765C119.82 60.9986 121.229 59.5854 122.99 59.5854C123.812 59.5854 124.556 59.8995 125.104 60.4098C125.182 60.4883 125.26 60.5668 125.3 60.6061L173.797 109.242C174.266 109.713 174.736 110.223 175.167 110.734C178.455 114.659 180.412 119.762 180.412 125.297C180.412 131.578 177.867 137.269 173.758 141.352L119.741 195.523H119.82V195.562Z" fill="#A6A8AB"/>
<path d="M96.2943 285.219V229.282C96.2943 222.491 99.0343 216.367 103.457 211.931L173.796 141.392C177.906 137.27 180.45 131.617 180.45 125.337C180.45 119.802 178.493 114.738 175.205 110.773C175.909 111.402 176.575 112.03 177.24 112.697C181.546 117.015 184.951 122.236 187.104 128.085C188.865 132.795 189.844 137.898 189.844 143.237V188.889C189.844 195.68 187.104 201.804 182.681 206.24L101.735 287.417C101.735 287.417 101.657 287.535 101.578 287.574C101.031 288.085 100.287 288.399 99.4648 288.399C97.7426 288.399 96.3335 286.985 96.3335 285.258L96.2943 285.219Z" fill="#A30C33"/>
<path d="M266.141 157.62L285.868 156.364C286.299 159.583 287.16 162.016 288.491 163.704C290.644 166.413 293.658 167.787 297.65 167.787C300.625 167.787 302.895 167.08 304.5 165.706C306.105 164.332 306.888 162.684 306.888 160.878C306.888 159.072 306.144 157.581 304.618 156.207C303.091 154.833 299.568 153.538 294.01 152.321C284.929 150.279 278.431 147.532 274.556 144.156C270.642 140.78 268.685 136.423 268.685 131.163C268.685 127.708 269.703 124.45 271.699 121.349C273.695 118.248 276.709 115.853 280.702 114.087C284.694 112.321 290.213 111.457 297.181 111.457C305.753 111.457 312.289 113.066 316.791 116.246C321.292 119.426 323.954 124.529 324.815 131.516L305.283 132.654C304.774 129.632 303.678 127.433 301.995 126.06C300.312 124.686 298.042 123.979 295.106 123.979C292.679 123.979 290.879 124.489 289.665 125.51C288.452 126.531 287.826 127.787 287.826 129.239C287.826 130.299 288.334 131.28 289.352 132.144C290.331 133.047 292.64 133.871 296.319 134.617C305.361 136.58 311.859 138.542 315.773 140.544C319.687 142.546 322.545 145.019 324.345 148.003C326.146 150.986 327.007 154.283 327.007 157.973C327.007 162.291 325.833 166.256 323.445 169.906C321.057 173.557 317.73 176.305 313.464 178.189C309.197 180.073 303.796 181.015 297.298 181.015C285.908 181.015 278.001 178.817 273.617 174.421C269.233 170.024 266.728 164.411 266.18 157.62H266.141Z" fill="#A30C33"/>
<path d="M337.416 112.596H358.122V163.273H390.454V179.838H337.377V112.596H337.416Z" fill="#A30C33"/>
<path d="M427.523 157.619L447.25 156.363C447.681 159.582 448.542 162.015 449.873 163.703C452.026 166.412 455.04 167.786 459.032 167.786C462.007 167.786 464.277 167.079 465.882 165.705C467.487 164.331 468.27 162.683 468.27 160.877C468.27 159.071 467.526 157.58 465.999 156.206C464.473 154.832 460.95 153.537 455.392 152.32C446.311 150.278 439.813 147.531 435.938 144.155C432.024 140.779 430.067 136.422 430.067 131.162C430.067 127.707 431.085 124.449 433.081 121.348C435.077 118.286 438.091 115.853 442.084 114.086C446.076 112.32 451.595 111.456 458.562 111.456C467.134 111.456 473.671 113.065 478.173 116.245C482.674 119.425 485.336 124.528 486.197 131.515L466.665 132.653C466.156 129.631 465.06 127.432 463.377 126.059C461.694 124.685 459.423 123.978 456.488 123.978C454.061 123.978 452.26 124.488 451.047 125.509C449.834 126.53 449.207 127.786 449.207 129.238C449.207 130.298 449.716 131.279 450.734 132.143C451.713 133.046 454.022 133.87 457.701 134.616C466.743 136.579 473.241 138.541 477.155 140.543C481.069 142.545 483.926 145.018 485.727 148.002C487.527 150.985 488.389 154.282 488.389 157.972C488.389 162.29 487.214 166.255 484.827 169.906C482.439 173.556 479.112 176.304 474.845 178.188C470.579 180.072 465.177 181.014 458.68 181.014C447.289 181.014 439.383 178.816 434.999 174.42C430.615 170.023 428.11 164.41 427.562 157.619H427.523Z" fill="#A6A8AB"/>
<path d="M496.182 146.275C496.182 135.283 499.235 126.765 505.341 120.642C511.447 114.518 519.941 111.456 530.822 111.456C541.704 111.456 550.589 114.479 556.617 120.485C562.645 126.49 565.659 134.93 565.659 145.725C565.659 153.576 564.328 160.013 561.705 165.077C559.083 170.102 555.247 174.027 550.276 176.814C545.305 179.601 539.081 181.014 531.644 181.014C524.207 181.014 517.827 179.798 512.856 177.403C507.885 174.969 503.893 171.162 500.8 165.941C497.708 160.72 496.182 154.165 496.182 146.314V146.275ZM516.888 146.314C516.888 153.105 518.14 157.972 520.645 160.956C523.151 163.939 526.595 165.391 530.901 165.391C535.206 165.391 538.807 163.939 541.234 161.034C543.661 158.129 544.874 152.908 544.874 145.411C544.874 139.091 543.583 134.459 541.038 131.515C538.494 128.61 535.05 127.118 530.666 127.118C526.282 127.118 523.15 128.61 520.606 131.554C518.062 134.538 516.81 139.444 516.81 146.275H516.888V146.314Z" fill="#A6A8AB"/>
<path d="M576.931 112.596H628.168V127.041H597.754V138.778H623.744V152.36H597.754V179.838H576.931V112.596Z" fill="#A6A8AB"/>
<path d="M634.584 112.596H697.563V129.2H676.427V179.838H655.72V129.2H634.584V112.596Z" fill="#A6A8AB"/>
<path fill-rule="evenodd" clip-rule="evenodd" d="M795.363 167.351C795.761 167.749 796.276 167.944 796.791 167.944C797.306 167.944 797.822 167.749 798.22 167.351C799.007 166.564 799.007 165.281 798.22 164.494L781.044 147.318L798.22 130.142C799.007 129.355 799.007 128.072 798.22 127.285C797.433 126.498 796.15 126.498 795.363 127.285L778.187 144.461L761.011 127.285C760.223 126.498 758.941 126.498 758.154 127.285C757.366 128.072 757.366 129.355 758.154 130.142L775.33 147.318L758.154 164.494C757.366 165.281 757.366 166.564 758.154 167.351C758.552 167.749 759.067 167.944 759.582 167.944C760.097 167.944 760.612 167.749 761.011 167.351L778.187 150.175L795.363 167.351Z" fill="#A6A8AB"/>
<path fill-rule="evenodd" clip-rule="evenodd" d="M1015.28 134.897H998.888C995.332 134.897 991.922 133.484 989.408 130.97L950.264 91.8257C942.712 84.2743 930.469 84.2742 922.917 91.8257L881.632 133.111C874.081 140.662 874.081 152.906 881.632 160.457L922.917 201.742C930.469 209.294 942.712 209.294 950.264 201.742L989.408 162.598C991.922 160.084 995.332 158.671 998.888 158.671H1015.17C1009.29 196.297 976.741 225.085 937.465 225.085C894.025 225.085 858.81 189.869 858.81 146.429C858.81 102.989 894.025 67.7744 937.465 67.7744C976.988 67.7744 1009.7 96.924 1015.28 134.897Z" fill="#324473"/>
<rect x="937.304" y="120.182" width="35.961" height="35.961" rx="4.49513" transform="rotate(45 937.304 120.182)" fill="#324473"/>
<path d="M1441.03 180.014L1408.87 147.583V180.014H1394.06V79.0869H1408.87V138.297L1434.57 112.199H1453.27L1423.26 142.738L1460 180.014H1441.03Z" fill="#324473"/>
<path d="M1345.89 180.359C1335.75 180.359 1327.32 176.994 1320.59 170.266C1313.95 163.448 1310.63 155.149 1310.63 145.371C1310.63 135.592 1313.95 127.339 1320.59 120.61C1327.32 113.792 1335.75 110.383 1345.89 110.383C1354.59 110.383 1361.99 112.805 1368.09 117.65C1374.28 122.494 1378.28 128.729 1380.07 136.355H1364.46C1363.11 132.587 1360.78 129.581 1357.46 127.339C1354.23 125.006 1350.38 123.84 1345.89 123.84C1339.97 123.84 1335.12 125.858 1331.36 129.895C1327.59 133.932 1325.7 139.091 1325.7 145.371C1325.7 151.651 1327.59 156.809 1331.36 160.846C1335.12 164.883 1339.97 166.902 1345.89 166.902C1350.38 166.902 1354.23 165.78 1357.46 163.538C1360.78 161.205 1363.11 158.155 1364.46 154.387H1380.07C1378.28 162.012 1374.28 168.247 1368.09 173.092C1361.99 177.936 1354.59 180.359 1345.89 180.359Z" fill="#324473"/>
<path d="M1266.5 180.359C1256.45 180.359 1248.2 177.084 1241.74 170.535C1235.28 163.896 1232.05 155.508 1232.05 145.371C1232.05 135.233 1235.23 126.89 1241.6 120.341C1247.97 113.702 1256.32 110.383 1266.63 110.383C1277.04 110.383 1285.43 114.016 1291.8 121.283C1298.17 128.46 1300.99 137.7 1300.28 149.004H1246.72C1246.9 154.207 1248.87 158.559 1252.64 162.057C1256.41 165.556 1261.21 167.305 1267.04 167.305C1275.29 167.305 1280.94 164.166 1283.99 157.886H1299.47C1297.41 164.435 1293.46 169.817 1287.63 174.034C1281.8 178.25 1274.75 180.359 1266.5 180.359ZM1266.23 122.763C1261.39 122.763 1257.21 124.154 1253.72 126.935C1250.31 129.626 1248.11 133.484 1247.12 138.508H1284.4C1283.32 133.304 1281.12 129.402 1277.8 126.8C1274.48 124.109 1270.63 122.763 1266.23 122.763Z" fill="#324473"/>
<path d="M1212.61 179.686C1205.79 179.686 1200.23 177.802 1195.92 174.034C1191.7 170.176 1189.6 164.614 1189.6 157.347L1189.6 125.387H1175.6V112.199H1189.6L1189.6 93.0234H1204.4L1204.4 112.199H1223.64V125.387H1204.4L1204.4 154.925C1204.4 159.052 1205.3 162.012 1207.09 163.807C1208.88 165.511 1211.75 166.364 1215.7 166.364C1218.93 166.364 1221.58 165.915 1223.64 165.018V178.206C1220.41 179.192 1216.73 179.686 1212.61 179.686Z" fill="#324473"/>
<path d="M1156.11 97.0609C1153.42 97.0609 1151.09 96.119 1149.12 94.235C1147.14 92.2613 1146.15 89.8839 1146.15 87.1028C1146.15 84.4115 1147.14 82.1238 1149.12 80.2398C1151.09 78.2661 1153.42 77.2793 1156.11 77.2793C1158.89 77.2793 1161.23 78.2661 1163.11 80.2398C1164.99 82.1238 1165.94 84.4115 1165.94 87.1028C1165.94 89.8839 1164.99 92.2613 1163.11 94.235C1161.23 96.119 1158.89 97.0609 1156.11 97.0609ZM1148.71 180.199V112.199H1163.51V180.199H1148.71Z" fill="#324473"/>
<path d="M1100.54 180.359C1090.4 180.359 1081.97 176.994 1075.24 170.266C1068.6 163.448 1065.28 155.149 1065.28 145.371C1065.28 135.592 1068.6 127.339 1075.24 120.61C1081.97 113.792 1090.4 110.383 1100.54 110.383C1109.24 110.383 1116.64 112.805 1122.74 117.65C1128.93 122.494 1132.92 128.729 1134.72 136.355H1119.11C1117.76 132.587 1115.43 129.581 1112.11 127.339C1108.88 125.006 1105.02 123.84 1100.54 123.84C1094.62 123.84 1089.77 125.858 1086 129.895C1082.24 133.932 1080.35 139.091 1080.35 145.371C1080.35 151.651 1082.24 156.809 1086 160.846C1089.77 164.883 1094.62 166.902 1100.54 166.902C1105.02 166.902 1108.88 165.78 1112.11 163.538C1115.43 161.205 1117.76 158.155 1119.11 154.387H1134.72C1132.92 162.012 1128.93 168.247 1122.74 173.092C1116.64 177.936 1109.24 180.359 1100.54 180.359Z" fill="#324473"/>
</g>
<defs>
<clipPath id="clip0_96_39">
<rect width="1462" height="288" fill="white"/>
</clipPath>
</defs>
</svg>
