<svg width="602" height="160" viewBox="0 0 602 160" fill="none" xmlns="http://www.w3.org/2000/svg">
<path fill-rule="evenodd" clip-rule="evenodd" d="M157.282 67.6976H140.889C137.334 67.6976 133.923 66.285 131.409 63.7706L92.265 24.6265C84.7135 17.075 72.4702 17.075 64.9187 24.6265L23.6335 65.9117C16.082 73.4632 16.082 85.7065 23.6335 93.258L64.9187 134.543C72.4701 142.095 84.7135 142.095 92.265 134.543L131.409 95.3991C133.923 92.8848 137.334 91.4722 140.889 91.4722H157.175C151.295 129.098 118.742 157.885 79.4666 157.885C36.0266 157.885 0.811523 122.67 0.811523 79.2303C0.811523 35.7903 36.0266 0.575195 79.4666 0.575195C118.989 0.575195 151.703 29.7248 157.282 67.6976Z" fill="white"/>
<rect x="79.3049" y="52.9824" width="35.961" height="35.961" rx="4.49513" transform="rotate(45 79.3049 52.9824)" fill="white"/>
<path d="M583.029 113.814L550.867 81.3833V113.814H536.065V12.8877H550.867V72.098L576.57 45.9998H595.275L565.266 76.5388L602.004 113.814H583.029Z" fill="white"/>
<path d="M487.891 114.159C477.754 114.159 469.321 110.795 462.592 104.067C455.954 97.2486 452.634 88.9502 452.634 79.1715C452.634 69.3929 455.954 61.1393 462.592 54.4108C469.321 47.5927 477.754 44.1836 487.891 44.1836C496.593 44.1836 503.995 46.6058 510.095 51.4503C516.285 56.2948 520.278 62.5298 522.072 70.1554H506.462C505.116 66.3875 502.784 63.3821 499.464 61.1393C496.235 58.8068 492.377 57.6405 487.891 57.6405C481.97 57.6405 477.126 59.659 473.358 63.6961C469.59 67.7332 467.706 72.8916 467.706 79.1715C467.706 85.4514 469.59 90.6099 473.358 94.647C477.126 98.684 481.97 100.703 487.891 100.703C492.377 100.703 496.235 99.5812 499.464 97.3383C502.784 95.0058 505.116 91.9556 506.462 88.1877H522.072C520.278 95.8132 516.285 102.048 510.095 106.893C503.995 111.737 496.593 114.159 487.891 114.159Z" fill="white"/>
<path d="M408.5 114.159C398.453 114.159 390.199 110.885 383.74 104.336C377.28 97.6972 374.051 89.3091 374.051 79.1715C374.051 69.034 377.236 60.6907 383.605 54.1417C389.975 47.503 398.318 44.1836 408.635 44.1836C419.042 44.1836 427.43 47.817 433.799 55.0837C440.169 62.2607 442.995 71.5011 442.277 82.8049H388.719C388.898 88.0082 390.872 92.3593 394.64 95.8581C398.408 99.3569 403.207 101.106 409.039 101.106C417.292 101.106 422.944 97.9663 425.994 91.6864H441.47C439.406 98.2355 435.459 103.618 429.628 107.835C423.796 112.051 416.754 114.159 408.5 114.159ZM408.231 56.5639C403.387 56.5639 399.215 57.9545 395.716 60.7356C392.307 63.427 390.109 67.2846 389.123 72.3085H426.398C425.322 67.1052 423.124 63.2027 419.804 60.601C416.485 57.9096 412.627 56.5639 408.231 56.5639Z" fill="white"/>
<path d="M354.608 113.487C347.79 113.487 342.228 111.603 337.921 107.835C333.705 103.977 331.597 98.4149 331.597 91.1482L331.597 59.1878H317.602V46H331.597L331.597 26.8242H346.399L346.399 46H365.643V59.1878H346.399L346.399 88.726C346.399 92.8527 347.296 95.8133 349.091 97.6075C350.885 99.312 353.756 100.164 357.703 100.164C360.933 100.164 363.579 99.7158 365.643 98.8186V112.006C362.413 112.993 358.735 113.487 354.608 113.487Z" fill="white"/>
<path d="M298.114 30.8617C295.423 30.8617 293.09 29.9197 291.117 28.0358C289.143 26.0621 288.156 23.6847 288.156 20.9036C288.156 18.2122 289.143 15.9246 291.117 14.0406C293.09 12.0669 295.423 11.0801 298.114 11.0801C300.895 11.0801 303.228 12.0669 305.112 14.0406C306.996 15.9246 307.938 18.2122 307.938 20.9036C307.938 23.6847 306.996 26.0621 305.112 28.0358C303.228 29.9197 300.895 30.8617 298.114 30.8617ZM290.713 114V46H305.515V114H290.713Z" fill="white"/>
<path d="M242.539 114.159C232.402 114.159 223.969 110.795 217.24 104.067C210.602 97.2486 207.282 88.9502 207.282 79.1715C207.282 69.3929 210.602 61.1393 217.24 54.4108C223.969 47.5927 232.402 44.1836 242.539 44.1836C251.241 44.1836 258.643 46.6058 264.743 51.4503C270.933 56.2948 274.926 62.5298 276.72 70.1554H261.11C259.764 66.3875 257.432 63.3821 254.112 61.1393C250.883 58.8068 247.025 57.6405 242.539 57.6405C236.618 57.6405 231.774 59.659 228.006 63.6961C224.238 67.7332 222.354 72.8916 222.354 79.1715C222.354 85.4514 224.238 90.6099 228.006 94.647C231.774 98.684 236.618 100.703 242.539 100.703C247.025 100.703 250.883 99.5812 254.112 97.3383C257.432 95.0058 259.764 91.9556 261.11 88.1877H276.72C274.926 95.8132 270.933 102.048 264.743 106.893C258.643 111.737 251.241 114.159 242.539 114.159Z" fill="white"/>
</svg>
